<svg width="42" height="42" viewBox="0 0 42 42" fill="none" xmlns="http://www.w3.org/2000/svg">
<path d="M37.5605 35.4177L13.873 41.7562C10.6888 42.6192 7.41545 40.7444 6.55246 37.5603L0.213958 13.8727C-0.64903 10.6886 1.2555 7.4152 4.43962 6.55221L28.1272 0.213714C31.3113 -0.649274 34.5847 1.25525 35.4477 4.43938L41.7862 28.1269C42.6194 31.311 40.7446 34.5845 37.5605 35.4177Z" fill="#D7DBF5"/>
<path d="M38.3043 12.325L36.8759 13.6641C36.8759 13.6641 28.9007 8.69451 28.6328 8.51597C28.365 8.36717 26.1332 12.1762 25.7165 12.4143L1.16602 26.5792L20.4196 30.1799L38.6911 20.3597C39.3756 19.9431 38.3043 12.325 38.3043 12.325Z" fill="#141938"/>
<path d="M23.2763 12.8906L22.0563 12.474C21.7884 12.3847 21.5206 12.2061 21.3421 11.9978L20.8957 11.4622C20.6576 11.1646 20.1815 11.1944 19.9732 11.5514L19.5566 12.2656C19.4673 12.4144 19.4078 12.593 19.4078 12.8013V14.5273L18.1282 16.164L14.0513 18.5149C13.9025 18.6041 13.8132 18.7529 13.8132 18.9315V19.4969C13.8132 19.6754 13.9025 19.8242 14.0513 19.9135L17.8306 22.0859C18.0091 22.2049 18.2472 22.2049 18.4258 22.0859L22.7407 19.6457C22.8597 19.5862 22.9192 19.4671 22.9192 19.3183V18.9315L24.2881 14.9439C24.5559 14.1107 24.1096 13.1882 23.2763 12.8906Z" fill="#545D94"/>
<path d="M29.3173 17.3247L28.0972 16.908C27.8294 16.8188 27.5615 16.6402 27.383 16.4319L26.9366 15.8963C26.6985 15.5987 26.2224 15.6284 26.0141 15.9855L25.7463 16.4617C25.5677 16.789 25.4487 17.1461 25.4487 17.5032V19.497C25.4487 19.7053 25.3297 19.9136 25.1511 20.0326L24.1989 20.5981L20.122 22.949C19.9732 23.0382 19.8839 23.187 19.8839 23.3656V23.931C19.8839 24.1095 19.9732 24.2583 20.122 24.3476L23.9013 26.5199C24.0798 26.639 24.3179 26.639 24.4964 26.5199L28.8114 24.0798C28.9304 24.0202 28.9899 23.9012 28.9899 23.7524V23.3656L30.3588 19.378C30.6266 18.515 30.1803 17.6222 29.3173 17.3247Z" fill="#545D94"/>
<path d="M11.9979 13.7236L11.1945 17.4732L14.2 15.5984L14.3191 17.2053L16.8188 17.8898L15.0333 19.1694L16.0451 22.175L7.83179 17.8898L9.23042 15.7472L11.9979 13.7236Z" fill="#FFCA61"/>
<path d="M19.9435 15.0928L18.1877 17.0568L20.6874 16.9378L20.5982 17.89L22.2051 18.1876L22.6217 16.2533L19.9435 15.0928Z" fill="#FFCA61"/>
<path d="M2.38624 23.1572C2.29697 23.3655 1.88035 23.1275 1.52325 24.5856C0.957846 25.1213 0.779297 25.9247 0.779297 26.3414V29.2874C0.779297 29.9123 0.987604 30.4777 1.40422 30.9539C1.58277 31.1622 2.47552 30.6861 2.74334 30.8348C5.06448 32.174 7.56417 33.3941 7.56417 33.3941C8.90329 34.1678 9.61749 35.3581 11.1649 35.3581L11.5815 34.5546L13.5753 26.1628L2.38624 23.1572Z" fill="#FF858D"/>
<path d="M36.876 9.31953L27.77 4.11184C26.8772 3.60595 25.7464 3.60595 24.8537 4.11184L16.6702 9.79566C16.2238 10.0932 15.7179 10.3015 15.1823 10.3908L13.5456 10.6289L12.9802 11.0455C12.7123 11.2538 12.4743 11.5216 12.3255 11.849L11.6708 13.2774L8.75449 15.7473L7.83199 17.2352L3.13019 20.8657C2.86236 21.074 3.21946 21.7287 3.07067 21.9965C2.83261 22.3834 2.17792 22.7107 2.17792 23.1869L2.11841 23.6332C2.11841 23.9308 3.21946 24.7938 3.57656 24.0796C3.81463 23.6035 6.90948 24.7045 7.35585 24.9723L8.69497 26.5495C9.46869 26.9959 8.18908 28.7219 9.08183 28.6028L12.5933 28.335C13.248 28.2755 14.4086 28.6921 14.974 28.3648C17.2356 27.1447 20.0329 24.3177 20.2114 24.3772L23.0682 16.64C27.5617 12.831 32.3825 12.1168 36.876 9.31953ZM21.8779 17.265L19.6162 22.919C19.4674 23.2761 19.1401 23.5142 18.7533 23.5142L8.54618 17.6518C8.48667 17.384 8.54618 17.0864 8.75449 16.8484L9.23062 15.9854L11.9981 13.7237L12.8314 12.0275C13.0694 11.7597 13.4563 11.7299 13.7241 11.968C14.111 12.3251 14.1407 13.2476 14.8549 13.7833C15.3608 14.1404 16.5214 14.1106 17.0868 14.4082C18.5152 15.2117 20.5387 16.0746 21.5505 16.4615C21.8481 16.5805 21.9969 16.9376 21.8779 17.265Z" fill="#C8C8FA"/>
<path d="M39.078 10.9263C38.6912 10.3906 38.1555 10.0038 37.5901 9.67643L36.8759 9.31934L35.4773 10.1823C39.2268 14.4377 33.2157 22.8296 32.5312 23.2164L30.4482 24.3175C30.8053 23.9306 31.0136 23.4545 31.0136 22.9188L31.1326 17.6219C31.1326 17.2053 31.1028 16.7886 31.0136 16.372L30.1506 12.5035C30.0315 11.9976 29.4661 11.7298 28.99 11.9976L24.7643 14.4377C23.8716 14.9436 23.1872 15.7769 22.8598 16.7291L21.4909 20.6572C21.3719 20.9846 21.2529 21.3119 21.0743 21.6095C20.9553 21.8475 20.866 22.1154 20.8065 22.3832C20.1221 23.8116 19.021 24.9722 17.6521 25.7756L14.6763 27.4718C13.9324 27.8885 13.0991 28.186 12.2659 28.2753C12.2659 28.2753 10.778 28.8705 9.52814 30.0608L8.78418 32.8283C8.78418 34.1972 9.88523 35.2983 11.2541 35.2983L13.9324 33.8401C14.349 33.2747 14.7953 30.656 17.5629 30.1501L21.6397 31.1619L31.579 25.4185L37.5306 21.2524C38.5424 20.6572 39.9113 20.0025 40.1196 18.842C40.1791 18.6039 40.2089 18.3361 40.2089 18.098V14.2294C40.2089 13.0986 39.822 11.9083 39.078 10.9263ZM22.7408 21.1631L23.8121 17.5028C24.1394 16.4315 24.8536 15.509 25.8356 14.9436L29.4661 12.8308L30.2399 16.2232C30.3589 16.7886 30.1208 17.3541 29.6447 17.6814L23.4252 21.669C23.0681 21.8773 22.6217 21.55 22.7408 21.1631Z" fill="#8C95CB"/>
<path d="M39.5243 18.0091C39.5243 18.0091 38.4828 17.4139 38.4233 17.4734C38.3637 17.5329 36.727 17.8305 36.727 17.8305L34.4654 19.7946L32.5311 24.9725L33.7512 24.2881L35.1796 25.0915L39.3755 20.6575L39.4648 20.2409L39.6433 19.0506L39.5243 18.0091Z" fill="#141938"/>
<path d="M37.7091 19.0205C37.4115 19.0205 37.1139 19.1098 36.8759 19.2586C35.3582 20.1216 34.3464 21.7583 34.3464 23.633C34.3464 24.5555 35.0904 25.3292 36.0427 25.3292C36.3402 25.3292 36.6378 25.24 36.9056 25.0912C38.3936 24.2282 39.4351 22.5915 39.4351 20.7167C39.4053 19.7942 38.6316 19.0205 37.7091 19.0205Z" fill="#545D94"/>
<path d="M37.3818 17.2651C36.1319 17.6519 35.1499 18.3959 34.3762 19.2589C34.1084 19.5564 33.1263 20.9848 32.9478 21.3717C32.5312 22.1752 32.2634 22.9191 32.0848 23.5738C31.7575 24.6451 31.6384 25.4783 31.6384 25.4783L32.9478 24.7344C32.9478 24.7344 34.0786 18.991 37.3818 17.9793C38.0067 17.8007 38.215 17.8305 38.5423 17.9197C38.8697 18.0388 39.316 18.2471 39.4351 18.5744C39.6731 19.1993 39.5541 20.0326 39.4053 20.6277C39.7922 20.1219 40.0302 19.5564 40.1493 18.9613C40.06 18.5149 39.9112 18.0685 39.6434 17.7114C39.4648 17.4734 38.0067 17.0568 37.3818 17.2651Z" fill="#C8C8FA"/>
<path d="M1.40422 26.0436L1.79108 25.8651C1.79108 24.764 2.11842 23.782 2.11842 23.782L3.57657 22.4727L2.17793 23.1571C2.08866 23.3654 1.91011 23.1273 1.52325 24.5855C0.957846 25.1211 0.779297 25.9246 0.779297 26.3412V27.3232C0.779297 28.216 0.779297 28.7814 0.779297 29.2575C0.779297 29.2575 1.07688 29.317 1.07688 29.1385C1.19591 27.9482 1.40422 26.0436 1.40422 26.0436Z" fill="#8C95CB"/>
<path d="M10.4507 31.9656C10.3019 32.2335 11.1351 32.8286 11.1351 33.275L9.2306 33.1857L10.3019 35.2688L7.62366 34.019L8.72471 30.9836L12.8016 29.6147C12.8313 29.6147 10.5995 31.6978 10.4507 31.9656Z" fill="#FF858D"/>
<path d="M13.6347 29.1684C12.5634 29.585 10.6291 30.1801 8.75434 29.8528L7.38547 28.3946L3.75496 28.0971L1.79092 25.8652C1.79092 25.8652 1.67189 24.8237 1.79092 23.6631C1.79092 23.6631 0.957693 26.3413 1.76116 26.9365C1.76116 27.4721 1.85044 28.0673 2.11826 28.2459C2.2373 28.3351 2.53488 28.4839 2.95149 28.6922L3.57642 29.6445L6.73079 30.6265C6.7903 30.6563 6.82006 30.686 6.87958 30.7158C7.71281 31.1324 8.39725 31.4895 8.63531 31.6383C8.93289 31.8168 9.02217 31.5788 9.02217 31.2217C9.4983 31.2217 10.3613 31.1919 11.6409 30.9538C11.9087 30.8943 12.6229 30.3884 13.7835 29.4362C13.8728 29.3171 13.7537 29.1386 13.6347 29.1684Z" fill="#141938"/>
<path d="M1.67204 29.0791L8.7545 33.156C9.23063 34.2868 9.677 34.9415 9.677 34.9415C9.11159 35.12 8.45691 34.2868 7.98078 34.138C7.50465 33.9892 2.08866 31.8169 2.08866 31.8169C1.58277 31.4598 1.13639 30.7456 1.04712 30.448C1.07688 30.0611 1.67204 29.0791 1.67204 29.0791Z" fill="#FF1C44"/>
<path d="M8.57582 17.8901C8.12945 18.4258 7.80211 19.021 7.41525 19.5864C7.05816 20.1518 6.6713 20.7469 6.28444 21.3123C5.86783 21.8777 5.45121 22.4431 4.97508 22.949C4.91556 23.0085 4.85605 23.0681 4.79653 23.1276C4.73702 23.1871 4.6775 23.2466 4.58822 23.3359C4.43943 23.4847 4.17161 23.574 3.9633 23.5144C3.75499 23.4847 3.6062 23.3359 3.48717 23.3061C3.45741 23.3061 3.45741 23.2764 3.45741 23.3061C3.42765 23.3359 3.42765 23.3656 3.42765 23.3954C3.3979 23.4847 3.3979 23.574 3.3979 23.6632C3.36814 23.574 3.33838 23.4847 3.33838 23.3954C3.33838 23.3359 3.33838 23.3061 3.36814 23.2466C3.3979 23.1871 3.48717 23.1276 3.54669 23.1276C3.75499 23.1573 3.90379 23.2169 4.05258 23.2169C4.17161 23.2169 4.26088 23.1573 4.35016 23.0383C4.37992 22.9788 4.43943 22.9193 4.46919 22.83C4.49895 22.7705 4.55847 22.6812 4.61798 22.6217C4.97508 22.0563 5.36194 21.4611 5.74879 20.8957C6.13565 20.3303 6.55227 19.7649 7.0284 19.259C7.26646 18.9912 7.50453 18.7531 7.77235 18.5151C7.9509 18.277 8.21873 18.0389 8.57582 17.8901Z" fill="#8C95CB"/>
<path d="M17.7414 23.6035C17.2653 23.9606 16.7594 24.288 16.2237 24.5558C15.6881 24.8236 15.1524 25.0617 14.587 25.27C14.0216 25.4783 13.4562 25.6568 12.8908 25.8354L12.0576 26.0734C11.7898 26.1627 11.4922 26.252 11.2839 26.3413L11.3732 26.252C11.1351 26.6091 10.8673 26.9364 10.5994 27.2638L10.5102 27.3531L10.4209 27.3233C10.0043 27.234 9.61742 27.1447 9.20081 27.0257C9.61742 26.9662 10.034 26.9662 10.4507 26.9662L10.2721 27.0555C10.4507 26.6686 10.659 26.3115 10.8673 25.9247L10.897 25.8651L10.9565 25.8354C11.2541 25.6568 11.5219 25.5676 11.8195 25.4485C12.0874 25.3295 12.3849 25.2402 12.6528 25.1509C13.2182 24.9724 13.7836 24.7938 14.3192 24.6451L15.9857 24.1392L17.7414 23.6035Z" fill="#8C95CB"/>
<path d="M21.1338 31.549L21.848 29.8825L20.985 27.9185H18.9019L17.3843 28.9898L15.6285 30.8348L14.6763 32.4417C14.6763 32.4417 15.3309 31.9953 16.0749 31.5787C18.3663 30.3289 21.1338 31.549 21.1338 31.549Z" fill="#141938"/>
<path d="M19.2591 30.6263C18.9317 30.4477 18.4853 30.5965 18.1282 30.9536L16.2535 29.8525L15.5095 31.1917L17.4438 32.3225C17.3843 32.7688 17.4736 33.1259 17.7711 33.3045L18.1282 33.5128L19.6162 30.8346C19.6162 30.8346 19.2888 30.656 19.2591 30.6263Z" fill="#545D94"/>
<path d="M19.616 30.8346C19.1399 30.5966 18.4555 30.9834 18.0686 31.7274C17.6818 32.4713 17.652 33.2748 18.1281 33.5129C18.6043 33.7509 19.378 33.3641 19.7648 32.6201C20.1517 31.8762 20.0922 31.0727 19.616 30.8346Z" fill="#8C95CB"/>
<path d="M14.4976 32.7098C14.4976 32.7098 15.1226 32.2336 15.5392 31.1921C15.7177 30.7457 16.0451 31.1921 16.3427 30.716C16.9973 29.6447 17.9496 28.6329 19.259 28.246C22.5919 27.2343 21.104 31.5492 21.104 31.5492L22.086 30.9838C22.086 30.9838 22.7109 26.4308 19.2887 27.5021C17.4437 28.0972 16.3427 28.6329 15.5094 29.853C15.3606 30.0613 15.1821 30.8945 15.1821 30.8945L13.5156 31.9361C13.5156 31.9361 13.7239 32.9776 13.6644 33.2157C13.5454 33.6025 13.9025 33.9001 13.9025 33.9001C14.4381 33.5132 14.3489 33.2157 14.4976 32.7098Z" fill="#C8C8FA"/>
</svg>
